<svg width="24" height="21" viewBox="0 0 24 21" fill="none" xmlns="http://www.w3.org/2000/svg">
<path d="M1.41042 11.275C1.41042 10.0949 2.36709 9.13818 3.5472 9.13818C5.31737 9.13818 6.75238 10.5732 6.75238 12.3434V16.6169C6.75238 18.3871 5.31737 19.8221 3.5472 19.8221C2.36709 19.8221 1.41042 18.8654 1.41042 17.6853V11.275Z" stroke="#141B34" stroke-width="1.60259" stroke-linecap="round" stroke-linejoin="round"/>
<path d="M15.811 6.2602L15.5265 7.1791C15.2933 7.93207 15.1768 8.30855 15.2664 8.60589C15.3389 8.84644 15.4982 9.05378 15.7151 9.19021C15.9833 9.35884 16.389 9.35884 17.2003 9.35884H17.6319C20.3778 9.35884 21.7507 9.35884 22.3991 10.1716C22.4733 10.2645 22.5392 10.3633 22.5962 10.4669C23.0951 11.3734 22.5279 12.5946 21.3936 15.0369C20.3527 17.2781 19.8322 18.3988 18.8658 19.0584C18.7723 19.1222 18.6761 19.1824 18.5776 19.2389C17.5603 19.8221 16.2997 19.8221 13.7786 19.8221H13.2317C10.1773 19.8221 8.65014 19.8221 7.70126 18.9027C6.75238 17.9833 6.75238 16.5036 6.75238 13.5441V12.504C6.75238 10.9487 6.75238 10.1711 7.02839 9.45932C7.30439 8.74757 7.8329 8.16235 8.8899 6.99189L13.2611 2.15148C13.3708 2.03009 13.4256 1.96938 13.4739 1.92732C13.9251 1.53472 14.6213 1.57891 15.0158 2.02518C15.058 2.07299 15.1042 2.14011 15.1965 2.27432C15.341 2.48427 15.4132 2.58925 15.4762 2.69326C16.0397 3.62434 16.2102 4.73037 15.9521 5.78037C15.9233 5.89765 15.8858 6.01857 15.811 6.2602Z" stroke="#141B34" stroke-width="1.60259" stroke-linecap="round" stroke-linejoin="round"/>
</svg>
