<svg width="31" height="32" viewBox="0 0 31 32" fill="none" xmlns="http://www.w3.org/2000/svg">
<rect x="13.1797" y="0.760742" width="16.9908" height="16.9908" rx="8.49539" fill="#232323"/>
<path d="M19.174 13.1846V12.1637L21.1761 10.0724C21.5725 9.65615 21.8765 9.32578 22.0879 9.0813C22.306 8.83021 22.458 8.61547 22.5439 8.43706C22.6298 8.25866 22.6727 8.07695 22.6727 7.89194C22.6727 7.58139 22.5736 7.33691 22.3754 7.15851C22.1837 6.98011 21.936 6.8909 21.632 6.8909C21.3149 6.8909 21.0406 6.98341 20.8094 7.16842C20.5781 7.34682 20.4096 7.61112 20.3039 7.96132L19.1245 7.59461C19.2037 7.20476 19.3656 6.86778 19.6101 6.58365C19.8546 6.29292 20.1519 6.07157 20.5021 5.9196C20.8589 5.76102 21.2356 5.68173 21.632 5.68173C22.1078 5.68173 22.524 5.76762 22.8808 5.93942C23.2443 6.11122 23.5251 6.35239 23.7233 6.66294C23.9281 6.9735 24.0305 7.33691 24.0305 7.75319C24.0305 8.01749 23.981 8.27848 23.8819 8.53618C23.7828 8.79387 23.6341 9.05817 23.4359 9.32908C23.2376 9.59338 22.9799 9.89072 22.6628 10.2211L20.9283 12.0448H24.1297V13.1846H19.174Z" fill="white"/>
<path d="M9.18134 23.5811H5.78574C4.52731 23.5811 3.8981 23.5811 3.76572 23.4833C3.61698 23.3736 3.58064 23.3088 3.56453 23.1246C3.5502 22.9607 3.93585 22.3297 4.70714 21.0676C5.50349 19.7646 6.17969 17.8673 6.17969 15.1811C6.17969 13.6958 6.81183 12.2715 7.93705 11.2213C9.06227 10.1711 10.5884 9.58105 12.1797 9.58105C13.771 9.58105 15.2971 10.1711 16.4223 11.2213C17.5475 12.2715 18.1797 13.6958 18.1797 15.1811C18.1797 17.8673 18.8559 19.7646 19.6522 21.0676C20.4235 22.3297 20.8092 22.9607 20.7948 23.1246C20.7787 23.3088 20.7424 23.3736 20.5937 23.4833C20.4613 23.5811 19.8321 23.5811 18.5736 23.5811H15.1797M9.18134 23.5811L9.17969 24.5811C9.17969 26.2379 10.5228 27.5811 12.1797 27.5811C13.8365 27.5811 15.1797 26.2379 15.1797 24.5811V23.5811M9.18134 23.5811H15.1797" stroke="#232323" stroke-width="2" stroke-linecap="round" stroke-linejoin="round"/>
</svg>
