<svg width="21" height="22" viewBox="0 0 21 22" fill="none" xmlns="http://www.w3.org/2000/svg">
<g clip-path="url(#clip0_1_297)">
<path fill-rule="evenodd" clip-rule="evenodd" d="M16.9986 12.7964C16.4542 12.7964 16.1334 13.188 16.1334 13.5284C16.1334 14.0063 15.746 14.3936 15.2682 14.3936C14.7904 14.3936 14.403 14.0063 14.403 13.5284C14.403 12.1046 15.6316 11.066 16.9986 11.066C18.3655 11.066 19.5941 12.1046 19.5941 13.5284C19.5941 14.0332 19.4334 14.5006 19.1645 14.8864C19.0058 15.1139 18.8226 15.3282 18.6612 15.5133C18.6308 15.5481 18.6013 15.5819 18.5724 15.6149C18.4389 15.7675 18.3212 15.9019 18.2122 16.0402C17.9365 16.39 17.8637 16.5893 17.8637 16.723V17.1223C17.8637 17.6001 17.4764 17.9874 16.9986 17.9874C16.5207 17.9874 16.1334 17.6001 16.1334 17.1223V16.723C16.1334 15.9745 16.5301 15.379 16.8533 14.9691C16.9926 14.7923 17.1455 14.6177 17.2797 14.4645C17.3062 14.4342 17.3321 14.4047 17.3569 14.3763C17.5171 14.1925 17.6451 14.0402 17.745 13.8968C17.8231 13.7847 17.8637 13.6596 17.8637 13.5284C17.8637 13.188 17.5429 12.7964 16.9986 12.7964ZM16.1249 19.7178C16.1249 19.24 16.5123 18.8526 16.9901 18.8526H16.9979C17.4757 18.8526 17.8631 19.24 17.8631 19.7178C17.8631 20.1956 17.4757 20.583 16.9979 20.583H16.9901C16.5123 20.583 16.1249 20.1956 16.1249 19.7178Z" fill="white"/>
<path d="M6.40009 5.44235C6.40009 2.93377 8.43369 0.900162 10.9423 0.900162C13.4509 0.900162 15.4845 2.93377 15.4845 5.44235C15.4845 7.95094 13.4509 9.98455 10.9423 9.98455C8.43369 9.98455 6.40009 7.95094 6.40009 5.44235Z" fill="white"/>
<path d="M11.4653 11.3797C10.5449 11.2499 9.60899 11.2499 8.68856 11.3797C7.42152 11.5584 6.18253 11.9833 5.0536 12.6555C4.95299 12.7154 4.82871 12.7855 4.68802 12.8649L4.68793 12.865C4.07122 13.2129 3.13898 13.7388 2.50033 14.3639C2.1009 14.7549 1.72139 15.2701 1.6524 15.9013C1.57902 16.5725 1.87185 17.2025 2.45933 17.7621C3.47284 18.7277 4.6891 19.5015 6.26226 19.5015H13.8916C14.0984 19.5015 14.2989 19.4882 14.4937 19.4628C14.6468 19.4428 14.7234 19.4328 14.7812 19.3847C14.839 19.3367 14.8699 19.2412 14.9318 19.0503C14.966 18.9447 15.0082 18.8427 15.0575 18.7449C15.1481 18.5653 15.1934 18.4755 15.1936 18.4142C15.1938 18.3529 15.1491 18.2628 15.0597 18.0827C14.916 17.7933 14.8353 17.4672 14.8353 17.1223V16.723C14.8353 16.5706 14.8454 16.4233 14.8639 16.2813C14.9011 15.9947 14.9197 15.8514 14.8772 15.7761C14.8346 15.7008 14.6898 15.6373 14.4003 15.5104C13.6376 15.176 13.1049 14.4145 13.1049 13.5285C13.1049 13.1371 13.1632 12.768 13.2699 12.4252C13.3574 12.1442 13.4011 12.0037 13.3504 11.9082C13.2996 11.8126 13.1784 11.7761 12.936 11.7029C12.4533 11.5574 11.9615 11.4497 11.4653 11.3797Z" fill="white"/>
</g>
<defs>
<clipPath id="clip0_1_297">
<rect width="20.7643" height="20.7643" fill="white" transform="translate(0.235687 0.359421)"/>
</clipPath>
</defs>
</svg>
