<svg width="26" height="26" viewBox="0 0 26 26" fill="none" xmlns="http://www.w3.org/2000/svg">
<path d="M13.9555 2.632C14.1489 2.31911 14.4905 2.12866 14.8583 2.12866C18.9649 2.12866 22.2873 5.45112 22.2873 9.55771C22.2873 10.1438 21.8122 10.619 21.226 10.619C20.6399 10.619 20.1647 10.1438 20.1647 9.55771C20.1647 7.51949 19.0202 5.75252 17.3378 4.86339L16.4861 5.715C16.3248 5.87632 16.1411 6.02899 15.9151 6.06064C15.4761 6.12214 15.0279 5.90232 14.8187 5.48394L13.909 3.66458C13.7445 3.33559 13.7621 2.94489 13.9555 2.632Z" fill="white"/>
<path d="M4.24536 14.8642C4.83149 14.8642 5.30665 15.3393 5.30665 15.9255C5.30665 17.9637 6.45118 19.7306 8.13364 20.6198L8.98525 19.7682C9.14657 19.6068 9.33034 19.4542 9.55627 19.4225C9.99524 19.361 10.4435 19.5809 10.6527 19.9992L11.5624 21.8186C11.7269 22.1476 11.7093 22.5383 11.5159 22.8512C11.3225 23.1641 10.9809 23.3545 10.6131 23.3545C6.50652 23.3545 3.18407 20.0321 3.18407 15.9255C3.18407 15.3393 3.65922 14.8642 4.24536 14.8642Z" fill="white"/>
<path d="M15.3169 19.6332C17.3138 18.581 19.8327 18.581 21.8295 19.6332C21.8795 19.6595 21.9456 19.6924 22.0234 19.7311C22.3951 19.916 23.0347 20.2342 23.471 20.6121C23.7384 20.8437 24.0724 21.2128 24.135 21.7195C24.205 22.2869 23.9114 22.7608 23.492 23.1145C22.8272 23.675 21.9962 24.1505 20.9129 24.1505H16.2335C15.1503 24.1505 14.3193 23.675 13.6545 23.1145C13.235 22.7608 12.9414 22.2869 13.0115 21.7195C13.0741 21.2128 13.4081 20.8437 13.6755 20.6121C14.1118 20.2342 14.7514 19.916 15.1231 19.7311C15.2009 19.6924 15.2669 19.6595 15.3169 19.6332Z" fill="white"/>
<path d="M15.3891 15.1295C15.3891 13.3786 16.807 11.9456 18.5729 11.9456C20.3389 11.9456 21.7568 13.3786 21.7568 15.1295C21.7568 16.8804 20.3389 18.3134 18.5729 18.3134C16.807 18.3134 15.3891 16.8804 15.3891 15.1295Z" fill="white"/>
<path d="M3.64168 9.02026C5.63856 7.96803 8.1574 7.96803 10.1543 9.02026C10.2043 9.04662 10.2703 9.07947 10.3481 9.11816C10.7199 9.30309 11.3594 9.62128 11.7957 9.9992C12.0631 10.2308 12.3971 10.5998 12.4597 11.1066C12.5298 11.6739 12.2362 12.1479 11.8167 12.5015C11.1519 13.062 10.3209 13.5375 9.23767 13.5375H4.5583C3.47505 13.5375 2.64406 13.062 1.97923 12.5015C1.55977 12.1479 1.26617 11.6739 1.33625 11.1066C1.39884 10.5998 1.73286 10.2308 2.00023 9.9992C2.43652 9.62128 3.07611 9.3031 3.44785 9.11816C3.52562 9.07947 3.59167 9.04661 3.64168 9.02026Z" fill="white"/>
<path d="M3.7138 4.51656C3.7138 2.76566 5.13175 1.33269 6.89768 1.33269C8.66361 1.33269 10.0816 2.76566 10.0816 4.51656C10.0816 6.26747 8.66361 7.70044 6.89768 7.70044C5.13175 7.70044 3.7138 6.26747 3.7138 4.51656Z" fill="white"/>
</svg>
